<svg width="28" height="28" viewBox="0 0 28 28" fill="none" xmlns="http://www.w3.org/2000/svg">
<g clip-path="url(#clip0_69_219)">
<path fill-rule="evenodd" clip-rule="evenodd" d="M35.0001 0.499857C35.0001 8.23136 28.1984 36.9999 20.4669 36.9999C12.7354 36.9999 8.41618e-05 35.7313 8.41618e-05 27.9998C8.41618e-05 20.2683 -7.19827 -8 0.533235 -8C8.26473 -8 35.0001 -7.23164 35.0001 0.499857ZM14.5017 10.3355C13.1402 10.9013 10.4184 12.0738 6.33736 13.8518C5.6747 14.1155 5.32703 14.3733 5.29553 14.6253C5.24186 15.0523 5.7762 15.2203 6.50186 15.4478C6.60103 15.4793 6.7037 15.5108 6.8087 15.5458C7.52386 15.778 8.48519 16.0498 8.98453 16.0603C9.43836 16.0697 9.94469 15.883 10.5035 15.5003C14.3162 12.9255 16.2844 11.6247 16.408 11.5967C16.4955 11.5768 16.6169 11.5512 16.6985 11.6247C16.7802 11.697 16.772 11.8347 16.7639 11.872C16.7102 12.0972 14.6172 14.0443 13.5322 15.0523C13.1939 15.3662 12.9547 15.589 12.9057 15.6403C12.796 15.7535 12.684 15.862 12.5767 15.9658C11.9117 16.6052 11.4147 17.0858 12.6047 17.8698C13.1764 18.2467 13.6337 18.5582 14.0899 18.8685C14.588 19.208 15.085 19.5463 15.729 19.9687C15.8924 20.076 16.0487 20.1868 16.2015 20.2953C16.7814 20.7095 17.3029 21.0805 17.9469 21.0222C18.3202 20.9872 18.7075 20.636 18.9035 19.5872C19.3667 17.1068 20.279 11.7355 20.4902 9.52115C20.5031 9.3373 20.4952 9.15259 20.4669 8.97049C20.4499 8.8234 20.3783 8.68807 20.2662 8.59132C20.0994 8.45482 19.8404 8.42565 19.7237 8.42798C19.1975 8.43732 18.3902 8.71848 14.5017 10.3355Z" fill="url(#paint0_linear_69_219)"/>
</g>
<defs>
<linearGradient id="paint0_linear_69_219" x1="15.9766" y1="-8" x2="17.5924" y2="28.9092" gradientUnits="userSpaceOnUse">
<stop stop-color="#8C0EBA"/>
<stop offset="1" stop-color="#4153B9"/>
</linearGradient>
<clipPath id="clip0_69_219">
<rect width="28" height="28" rx="3" fill="white"/>
</clipPath>
</defs>
</svg>
